<?xml version="1.0" encoding="UTF-8"?>
<svg width="27px" height="23px" viewBox="0 0 27 23" version="1.1" xmlns="http://www.w3.org/2000/svg" xmlns:xlink="http://www.w3.org/1999/xlink">
    <!-- Generator: Sketch 52.2 (67145) - http://www.bohemiancoding.com/sketch -->
    <title>Twitter Icon</title>
    <desc>Created with Sketch.</desc>
    <g id="Page-1" stroke="none" stroke-width="1" fill="none" fill-rule="evenodd">
        <g id="step3" transform="translate(-648.000000, -2993.000000)" fill="#FFFFFF">
            <g id="Group-6" transform="translate(312.000000, 2780.000000)">
                <g id="SHARE" transform="translate(20.000000, 118.000000)">
                    <g id="Group-2" transform="translate(259.000000, 69.000000)">
                        <path d="M83.2713109,27.5848464 C83.0701947,27.3326376 82.7407647,27.235926 82.4422756,27.3383265 C82.4158848,27.3478081 80.098044,28.1480494 78.8494859,28.4713697 C77.802044,27.4805495 76.4242619,26.9201909 75.0018885,26.9201909 C71.8531924,26.9201909 69.2914643,29.5882942 69.2914643,32.8689045 C69.2914643,32.9675124 69.2941944,33.0661203 69.2987445,33.1647283 C65.9025209,32.7352149 62.7674752,30.9441534 60.5879587,28.1575309 C60.4287038,27.953678 60.1866364,27.848433 59.9345587,27.8664479 C59.6843011,27.8863591 59.4595242,28.034271 59.3330304,28.2599315 C58.8270549,29.1654178 58.5595068,30.199853 58.5595068,31.2504069 C58.5595068,32.8518377 60.3986729,35.3701328 61.9329797,37.0388825 C61.9275196,37.0388825 61.9220594,37.0388825 61.9165992,37.0379343 C58.0353308,36.8776964 58.0353308,36.8776964 57.7868932,37.1261126 C57.6367386,37.2768689 57.552106,37.4845145 57.552106,37.7006935 C57.552106,40.1298621 61.1057645,42.9051067 63.7594055,43.9973792 C62.4544256,44.7113386 61.0065715,45.0830147 59.4968354,45.0830147 C59.1300942,45.0830147 58.763353,45.0612072 58.4066221,45.0175921 C58.0508013,44.9739771 57.7168211,45.1911042 57.5966974,45.5409727 C57.4765737,45.8908413 57.6039776,46.2805323 57.9042868,46.4805926 C60.2949297,48.0772827 63.0586841,48.9201909 65.8961507,48.9201909 C71.4746209,48.9201909 74.9663975,46.1762354 76.9138569,43.8750675 C79.3072299,41.0457781 80.6932022,37.3110025 80.7277833,33.608464 C80.9689406,33.051898 82.2129486,30.6397962 83.3532134,28.479903 C83.505188,28.1926126 83.472427,27.8370551 83.2713109,27.5848464" id="Twitter-Icon"></path>
                    </g>
                </g>
            </g>
        </g>
    </g>
</svg>