<?xml version="1.0" encoding="UTF-8"?>
<svg width="98px" height="80px" viewBox="0 0 98 80" version="1.1" xmlns="http://www.w3.org/2000/svg" xmlns:xlink="http://www.w3.org/1999/xlink">
    <!-- Generator: Sketch 52.2 (67145) - http://www.bohemiancoding.com/sketch -->
    <title>if_group_383495</title>
    <desc>Created with Sketch.</desc>
    <g id="Page-1" stroke="none" stroke-width="1" fill="none" fill-rule="evenodd">
        <g id="step3" transform="translate(-957.000000, -4026.000000)" fill="#FF4100" fill-rule="nonzero">
            <g id="Group-8" transform="translate(339.000000, 3961.000000)">
                <g id="if_group_383495" transform="translate(618.000000, 65.000000)">
                    <path d="M41,16.0108784 C41,7.18302964 33.6430612,0 24.6002256,0 C15.55739,0 8.20045119,7.18302964 8.20045119,16.0108784 C8.20045119,22.0712537 11.7100029,27.2961654 16.8103328,30.0114224 C9.91914755,32.2828393 4.15626682,37.625238 0.171121643,45.6437313 C-0.232312808,46.4530868 0.10224259,47.4321458 0.915671401,47.8302964 C1.1485482,47.94452 1.39782477,48 1.64054143,48 C2.24733308,48 2.8278851,47.6638564 3.11324117,47.0927386 C7.94133476,37.3739462 15.5737898,32.0250204 24.6035056,32.0250204 C33.6430612,32.0217569 41,24.8387272 41,16.0108784 Z M11.4804061,16.0108784 C11.4804061,8.9812347 17.3646451,3.26353005 24.6002256,3.26353005 C31.8358061,3.26353005 37.7200451,8.9812347 37.7200451,16.0108784 C37.7200451,23.0405222 31.8358061,28.7582268 24.6002256,28.7582268 C17.3646451,28.7582268 11.4804061,23.0405222 11.4804061,16.0108784 Z" id="Shape"></path>
                    <path d="M97.830231,45.6468348 C93.8449538,37.6277963 88.0786021,32.2850343 81.1904686,30.013463 C86.2909674,27.2980214 89.8006354,22.0727545 89.8006354,16.0119671 C89.8006354,7.18351805 82.4434529,0 73.4003177,0 C64.3571825,0 57,7.18351805 57,16.0119671 C57,24.8404161 64.3571825,32.0239342 73.4003177,32.0239342 C82.4303326,32.0239342 90.0630405,37.3764874 94.891294,47.092677 C95.1766596,47.6670973 95.7605109,48 96.3607625,48 C96.6067673,48 96.852772,47.9445162 97.0889366,47.8302849 C97.8991123,47.4353709 98.2303987,46.4562453 97.830231,45.6468348 Z M60.2800635,16.0119671 C60.2800635,8.98184538 66.1644975,3.26375195 73.4003177,3.26375195 C80.6361379,3.26375195 86.5205719,8.98184538 86.5205719,16.0119671 C86.5205719,23.0420888 80.6361379,28.7601822 73.4003177,28.7601822 C66.1644975,28.7601822 60.2800635,23.0420888 60.2800635,16.0119671 Z" id="Shape"></path>
                    <path d="M56.3051844,54.3517814 C61.2045981,51.6070906 64.5425511,46.5778389 64.5425511,40.7763412 C64.5425511,32.0757035 57.1223047,25 48.0016541,25 C38.8810035,25 31.4607571,32.0757035 31.4607571,40.7763412 C31.4607571,46.5810566 34.7987101,51.6070906 39.7047401,54.3517814 C29.4063777,56.9484584 21.317879,64.6451764 15.1514326,77.7186568 C14.770992,78.5262973 15.1315835,79.4819517 15.9619366,79.8519862 C16.1868928,79.9517346 16.4217735,80 16.653346,80 C17.278592,80 17.8773724,79.6524893 18.1552595,79.0636518 C25.300927,63.9211958 35.0633644,56.5623355 48.0016541,56.5623355 C60.9366356,56.5623355 70.6957648,63.9211958 77.8447405,79.0636518 C78.2251811,79.8680747 79.1977859,80.218803 80.0380634,79.8519862 C80.8684165,79.4819517 81.229008,78.5262973 80.8485674,77.7186568 C74.6788128,64.6451764 66.5969305,56.9420231 56.3051844,54.3517814 Z M34.7689365,40.7763412 C34.7689365,33.8518692 40.7038103,28.2176915 48.0016541,28.2176915 C55.2994979,28.2176915 61.2343717,33.8518692 61.2343717,40.7763412 C61.2343717,47.7040309 55.2994979,53.3414263 48.0049623,53.3414263 C40.7071185,53.3414263 34.7689365,47.7040309 34.7689365,40.7763412 Z" id="Shape"></path>
                </g>
            </g>
        </g>
    </g>
</svg>