
<svg width="32px" height="25px" viewBox="0 0 32 25" version="1.1" xmlns="http://www.w3.org/2000/svg" xmlns:xlink="http://www.w3.org/1999/xlink">
    <g id="Desktop" stroke="none" stroke-width="1" fill="none" fill-rule="evenodd">
        <g id="STORY:-Looking-after-babies-Copy" transform="translate(-809.000000, -1379.000000)" fill="#DAA900">
            <g id="Group-2" transform="translate(764.000000, 1355.000000)">
                <path d="M76.7814762,24.7552903 C76.5329575,24.4686894 76.1258817,24.3587898 75.7570394,24.4751541 C75.7244284,24.4859285 72.8602785,25.3952937 71.3174385,25.7627031 C70.0231171,24.6367711 68.3205953,24 66.5629722,24 C62.6721365,24 59.5066155,27.0319355 59.5066155,30.7599017 C59.5066155,30.8719562 59.5099891,30.9840107 59.5156116,31.0960652 C55.3189068,30.6079817 51.4449389,28.5726846 48.7517159,25.4060682 C48.554925,25.1744171 48.255803,25.0548205 47.9443112,25.075292 C47.6350685,25.0979184 47.3573123,25.2660001 47.2010042,25.5224324 C46.5757716,26.5513942 46.245163,27.7268888 46.245163,28.9206999 C46.245163,30.7405077 48.5178159,33.6022066 50.4137549,35.4985131 C50.4070078,35.4985131 50.4002607,35.4985131 50.3935136,35.4974357 C45.5974401,35.3153472 45.5974401,35.3153472 45.2904464,35.5976382 C45.1049008,35.7689523 45.0003205,36.0049132 45.0003205,36.250571 C45.0003205,39.01099 49.3915672,42.164677 52.6706646,43.4058958 C51.0581043,44.2172133 49.2689946,44.6395725 47.4034176,44.6395725 C46.9502364,44.6395725 46.4970553,44.6147912 46.0562438,44.5652286 C45.6165569,44.5156661 45.2038585,44.7624014 45.0554219,45.1599793 C44.9069854,45.5575572 45.0644181,46.0003879 45.4355094,46.2277292 C48.3896208,48.0421497 51.8047849,49 55.3110351,49 C62.2043366,49 66.5191159,45.8818687 68.9255866,43.2669051 C71.8830715,40.0518036 73.5957139,35.8077404 73.6384456,31.6003103 C73.9364432,30.967849 75.4736606,28.2268241 76.8826829,25.7724001 C77.0704776,25.4459337 77.0299949,25.0418911 76.7814762,24.7552903" id="Twitter-Icon"></path>
            </g>
        </g>
    </g>
</svg>