<?xml version="1.0" encoding="UTF-8"?>
<svg width="50px" height="50px" viewBox="0 0 50 50" version="1.1" xmlns="http://www.w3.org/2000/svg" xmlns:xlink="http://www.w3.org/1999/xlink">
    <!-- Generator: Sketch 52.2 (67145) - http://www.bohemiancoding.com/sketch -->
    <title>if_pencil_836134</title>
    <desc>Created with Sketch.</desc>
    <g id="Page-1" stroke="none" stroke-width="1" fill="none" fill-rule="evenodd">
        <g id="step3" transform="translate(-620.000000, -3231.000000)" fill="#FF4100" fill-rule="nonzero">
            <g id="if_pencil_836134" transform="translate(620.000000, 3231.000000)">
                <path d="M48.1689453,1.83030204 C46.9482422,0.610361099 45.3491211,0 43.75,0 C42.1493164,0 40.5501953,0.610361099 39.3294922,1.83030204 L0,41.1619713 L0,50 L8.83789063,50 L48.1689453,10.6698933 C50.6103516,8.22844888 50.6103516,4.27174643 48.1689453,1.83030204 Z M2.0828125,46.1913467 L3.80859375,47.917155 L2.0828125,47.917155 L2.0828125,46.1913467 Z M7.97421875,47.917155 L6.75351563,47.917155 L2.0828125,43.2448163 L2.0828125,42.0240941 L37.8570312,6.25009766 L40.0726562,8.46644088 L7.37148438,41.1681237 C6.9640625,41.575552 6.9640625,42.2347419 7.37148438,42.6421702 C7.77890625,43.0480359 8.43808594,43.0480359 8.84394531,42.6421702 L41.546582,9.93980375 L43.75,12.1423772 L7.97421875,47.917155 Z M46.6949219,9.19662807 L45.2224609,10.6698933 L39.3294922,4.77683245 L40.8019531,3.30356724 C41.5893555,2.51693386 42.6361328,2.08362631 43.75,2.08362631 C44.8624023,2.08362631 45.9076172,2.51703152 46.6949219,3.30356724 C48.3200195,4.92869029 48.3200195,7.57150502 46.6949219,9.19662807 Z" id="pencil"></path>
            </g>
        </g>
    </g>
</svg>