<?xml version="1.0" encoding="UTF-8"?>
<svg width="15px" height="28px" viewBox="0 0 15 28" version="1.1" xmlns="http://www.w3.org/2000/svg" xmlns:xlink="http://www.w3.org/1999/xlink">
    <!-- Generator: Sketch 52.2 (67145) - http://www.bohemiancoding.com/sketch -->
    <title>Facebook Icon</title>
    <desc>Created with Sketch.</desc>
    <g id="Page-1" stroke="none" stroke-width="1" fill="none" fill-rule="evenodd">
        <g id="step3" transform="translate(-370.000000, -2991.000000)" fill="#FFFFFF">
            <g id="Group-6" transform="translate(312.000000, 2780.000000)">
                <g id="SHARE" transform="translate(20.000000, 118.000000)">
                    <g id="Group-2" transform="translate(0.000000, 69.000000)">
                        <path d="M49.2621932,30.5472869 L51.4012053,30.5463753 C51.8553341,30.5463753 52.2230796,30.1380164 52.2230796,29.6348599 L52.2230796,25.6314839 C52.2230796,25.1739031 51.917859,24.7883321 51.508156,24.728172 C51.1831907,24.6798617 49.8923791,24.5440459 48.2840065,24.5440459 C44.6279412,24.5440459 42.2651555,27.2239014 42.2651555,31.3712969 L42.2651555,33.7603789 L39.5996174,33.7603789 C39.1454886,33.7603789 38.7769204,34.1687379 38.7769204,34.6718944 L38.7769204,39.1492584 C38.7769204,39.652415 39.1454886,40.0607739 39.5996174,40.0607739 L42.2651555,40.0607739 L42.2651555,50.6325304 C42.2651555,51.1365985 42.6337238,51.5440459 43.0878525,51.5440459 L47.2597488,51.5440459 C47.7138775,51.5440459 48.0824458,51.1365985 48.0824458,50.6325304 L48.0824458,40.0607739 L50.7389343,40.0607739 C51.1527509,40.0607739 51.5015744,39.7198671 51.5550497,39.2650209 L52.0758169,34.7885684 C52.1062566,34.5287865 52.0338593,34.2671815 51.8775469,34.0702942 C51.7212345,33.8734068 51.4966382,33.7603789 51.2597015,33.7603789 L48.0824458,33.7603789 L48.0824458,31.8152049 C48.0824458,30.8572021 48.1737651,30.5472869 49.2621932,30.5472869" id="Facebook-Icon"></path>
                    </g>
                </g>
            </g>
        </g>
    </g>
</svg>