
<svg width="38px" height="40px" viewBox="0 0 38 40" version="1.1" xmlns="http://www.w3.org/2000/svg" xmlns:xlink="http://www.w3.org/1999/xlink">
    <g id="Mobile" stroke="none" stroke-width="1" fill="none" fill-rule="evenodd">
        <g id="Norfolk-Counts---HP" transform="translate(-343.000000, -36.000000)" fill="#DAA900">
            <g id="Group-3" transform="translate(343.000000, 36.000000)">
                <path d="M29.8864338,12.1276596 C32.1267943,12.1280917 33.9444289,10.3230484 33.9438202,8.09847082 C33.9432982,5.85297272 32.114791,4.03625885 29.8617312,4.04255319 C27.6520748,4.04862097 25.8385283,5.85582551 25.8314607,8.05879099 C25.8241765,10.3251232 27.620066,12.1272273 29.8864338,12.1276596 M25.8314607,32.1154298 C25.829809,34.3645199 27.641321,36.1655377 29.9100386,36.1702128 C32.0778509,36.1747843 33.9411204,34.3380763 33.9438202,32.1939829 C33.9466006,29.891919 32.1565745,28.0816546 29.8806369,28.0851064 C27.6318394,28.0884816 25.8329406,29.8789565 25.8314607,32.1154298 M11.9549111,21.0644349 C11.9355116,18.8076625 10.1488395,17.0244771 7.90371178,17.0212766 C5.6260485,17.0179127 3.82954615,18.8416937 3.84269663,21.1436396 C3.85520922,23.3159386 5.72148034,25.1210629 7.9395531,25.106293 C10.1473606,25.0916094 11.9737887,23.2531449 11.9549111,21.0644349 M15.6962322,19.139362 C15.9494847,20.1589327 16.0002225,21.1796367 15.8709764,22.2135921 C15.8568292,22.3271005 15.9875599,22.5285736 16.0999516,22.577656 C18.839532,23.7742022 21.5840027,24.9595893 24.3357217,26.1276276 C24.4738753,26.1862126 24.735162,26.1284994 24.8568978,26.0269346 C26.4417343,24.7045876 28.2564192,24.0713118 30.322086,24.106794 C33.9232487,24.1686919 37.2629501,27.0094538 37.8716293,30.550969 C38.6631742,35.1556448 35.7204679,39.2992254 31.0780883,39.9250038 C26.6489647,40.5220128 23.0295503,37.4748957 22.2526765,33.6242401 C22.0525198,32.6323055 22.0133093,31.6374067 22.2374814,30.6436414 C22.2953801,30.387332 22.2164352,30.2613568 21.9658026,30.1543869 C19.3095336,29.0208719 16.6580676,27.875762 14.0091342,26.7251597 C13.7797224,26.6254257 13.6359798,26.6351027 13.4385302,26.8167859 C8.8381555,31.0520799 1.61618117,28.8382297 0.196919428,22.7640469 C-0.840455063,18.3242285 2.34266643,13.779271 6.88025196,13.2000467 C9.18362679,12.9060756 11.2262389,13.4927973 13.0229341,14.9455657 C13.2074591,15.0947308 13.3360066,15.127772 13.554677,15.0114738 C16.4133733,13.4909666 19.2765234,11.9791773 22.1422934,10.472183 C22.36926,10.3528335 22.434669,10.2467354 22.3667275,9.97028743 C21.2608875,5.46883274 23.9120915,1.19892827 28.4285435,0.182060167 C32.7078116,-0.781366563 37.1393804,2.18789875 37.877655,6.51316256 C38.632522,10.9358937 35.8127741,15.0066789 31.4111589,15.7881609 C29.1985184,16.180907 27.1702281,15.6610524 25.3481203,14.3512593 C25.1725028,14.2250226 25.0429947,14.1553657 24.8137576,14.2776793 C21.8421456,15.8642691 18.8632853,17.4373459 15.8866955,19.0146945 C15.8246924,19.0475614 15.7687148,19.0915873 15.6962322,19.139362" id="Fill-1"></path>
            </g>
        </g>
    </g>
</svg>