<?xml version="1.0" encoding="UTF-8"?>
<svg width="94px" height="50px" viewBox="0 0 94 50" version="1.1" xmlns="http://www.w3.org/2000/svg" xmlns:xlink="http://www.w3.org/1999/xlink">
    <!-- Generator: Sketch 52.2 (67145) - http://www.bohemiancoding.com/sketch -->
    <title>Leeds Counts</title>
    <desc>Created with Sketch.</desc>
    <g id="Page-1" stroke="none" stroke-width="1" fill="none" fill-rule="evenodd">
        <g id="Leeds-Front-Alt1" transform="translate(-63.000000, -49.000000)" fill="#FF4100">
            <path d="M64.176,71 L64.176,70.944 C64.988,68.956 65.296,67.808 65.296,65.092 L65.296,56.412 C65.296,53.668 64.988,52.576 64.176,50.56 L64.176,50.504 L71.428,50.504 L71.428,50.56 C70.616,52.576 70.308,53.724 70.308,56.412 L70.308,70.384 L73.5,70.188 C75.46,70.104 78.4,66.604 79.8,64.476 L80.108,64.56 L78.652,71 L64.176,71 Z M87.836,57.42 C86.38,57.42 85.652,59.744 85.652,62.292 L89.628,62.236 L89.628,61.172 C89.628,58.512 88.928,57.42 87.836,57.42 Z M93.968,66.996 C93.212,69.656 91.112,71.42 87.892,71.42 C83.636,71.42 81.088,68.34 81.088,64.42 C81.088,60.052 84.112,56.916 88.004,56.916 C91.896,56.916 94.08,60.052 93.996,62.88 L85.652,62.852 C85.792,66.968 87.752,68.256 90.216,68.256 C92.148,68.256 93.296,67.472 93.828,66.912 L93.968,66.996 Z M102.144,57.42 C100.688,57.42 99.96,59.744 99.96,62.292 L103.936,62.236 L103.936,61.172 C103.936,58.512 103.236,57.42 102.144,57.42 Z M108.276,66.996 C107.52,69.656 105.42,71.42 102.2,71.42 C97.944,71.42 95.396,68.34 95.396,64.42 C95.396,60.052 98.42,56.916 102.312,56.916 C106.204,56.916 108.388,60.052 108.304,62.88 L99.96,62.852 C100.1,66.968 102.06,68.256 104.524,68.256 C106.456,68.256 107.604,67.472 108.136,66.912 L108.276,66.996 Z M117.236,69.124 C118.16,69.124 119.084,68.732 119.616,68.088 L119.616,60.388 C119.364,58.4 118.636,57.42 117.376,57.42 C115.584,57.42 114.408,59.408 114.408,63.692 C114.408,67.388 115.416,69.124 117.236,69.124 Z M119.644,68.648 C118.832,70.076 117.264,71.42 115.024,71.42 C111.832,71.42 109.76,68.704 109.76,64.812 C109.76,60.584 112.308,56.916 117.124,56.916 C118.104,56.916 118.944,57.056 119.616,57.28 L119.616,55.348 C119.616,53.22 119.168,52.044 118.216,50.868 L118.216,50.812 L124.124,49.188 L124.124,65.12 C124.124,68.256 124.656,69.096 125.552,70.076 L125.552,70.132 L119.7,71.392 L119.7,68.648 L119.644,68.648 Z M136.584,60.92 L136.332,60.976 C134.568,58.54 133.392,57.448 131.964,57.448 C130.816,57.448 129.92,58.148 129.92,59.24 C129.92,60.78 131.712,61.396 133.588,62.152 C135.548,63.048 137.536,64.168 137.536,67.024 C137.536,70.188 134.904,71.42 131.74,71.42 C130.06,71.42 128.408,71.084 127.176,70.552 L126.784,66.632 L127.036,66.576 C128.856,69.348 130.508,70.916 132.412,70.916 C133.868,70.916 134.4,70.02 134.4,69.096 C134.4,67.612 132.888,66.94 131.096,66.128 C129.164,65.232 127.008,64.168 127.008,61.228 C127.008,58.176 129.64,56.944 132.748,56.944 C134.064,56.944 135.296,57.112 136.22,57.42 L136.584,60.92 Z M82.74,96.62 C81.984,97.152 79.324,98.72 75.292,98.72 C68.796,98.72 63.812,94.38 63.812,88.304 C63.812,82.228 68.74,77.384 75.516,77.384 C78.68,77.384 80.864,77.944 82.628,78.42 L83.188,83.572 L82.908,83.656 C79.856,79.568 78.176,78.028 75.376,78.028 C70.784,78.028 69.216,82.256 69.216,88.304 C69.216,94.408 71.372,98.076 75.32,98.076 C78.708,98.076 80.556,95.276 83.02,91.02 L83.3,91.104 L82.74,96.62 Z M92.736,98.72 C88.62,98.72 85.204,95.388 85.204,91.496 C85.204,87.604 88.62,84.216 92.736,84.216 C96.852,84.216 100.268,87.604 100.268,91.496 C100.268,95.388 96.852,98.72 92.736,98.72 Z M92.736,98.188 C94.724,98.188 95.62,95.444 95.62,91.496 C95.62,87.52 94.724,84.748 92.736,84.748 C90.72,84.748 89.852,87.52 89.852,91.496 C89.852,95.444 90.748,98.188 92.736,98.188 Z M110.74,95.612 C110.152,96.788 108.584,98.72 106.148,98.72 C103.712,98.72 102.368,96.956 102.368,94.268 L102.368,87.912 C102.368,86.232 101.948,85.532 101.304,84.748 L101.304,84.664 L106.848,84.664 L106.848,94.296 C106.848,95.444 107.38,96.396 108.64,96.396 C109.564,96.396 110.236,95.808 110.684,95.024 L110.684,87.884 C110.684,86.204 110.292,85.476 109.62,84.72 L109.62,84.664 L115.192,84.664 L115.192,92.476 C115.192,95.584 115.556,96.396 116.592,97.376 L116.592,97.432 L110.824,98.692 L110.824,95.64 L110.74,95.612 Z M124.236,98.3 L118.384,98.3 L118.384,98.244 C118.832,96.9 119.084,95.724 119.084,93.372 L119.056,90.208 C119.056,88.108 118.664,86.96 117.656,85.756 L117.656,85.7 L123.452,84.076 L123.452,86.876 L123.564,86.904 C124.32,85.7 125.776,84.216 128.268,84.216 C130.732,84.216 132.468,85.728 132.468,88.108 L132.468,93.344 C132.468,95.724 132.692,96.872 133.14,98.244 L133.14,98.3 L127.288,98.3 L127.288,98.244 C127.736,96.9 127.96,95.64 127.96,93.4 L127.96,88.388 C127.96,87.184 127.372,86.316 126.028,86.316 C124.992,86.316 124.096,86.932 123.564,87.688 L123.564,93.372 C123.564,95.696 123.788,96.872 124.236,98.244 L124.236,98.3 Z M139.832,98.72 C137.564,98.72 135.968,97.628 135.968,94.828 L135.968,85.28 L134.4,85.28 L134.4,85.028 L140.168,81.416 L140.476,81.416 L140.476,84.664 L143.808,84.664 L143.808,85.28 L140.476,85.28 L140.476,94.716 C140.476,96.396 141.372,96.928 142.492,96.928 C143.472,96.928 144.06,96.48 144.088,96.452 L144.172,96.536 C143.528,97.628 142.072,98.72 139.832,98.72 Z M155.204,88.22 L154.952,88.276 C153.188,85.84 152.012,84.748 150.584,84.748 C149.436,84.748 148.54,85.448 148.54,86.54 C148.54,88.08 150.332,88.696 152.208,89.452 C154.168,90.348 156.156,91.468 156.156,94.324 C156.156,97.488 153.524,98.72 150.36,98.72 C148.68,98.72 147.028,98.384 145.796,97.852 L145.404,93.932 L145.656,93.876 C147.476,96.648 149.128,98.216 151.032,98.216 C152.488,98.216 153.02,97.32 153.02,96.396 C153.02,94.912 151.508,94.24 149.716,93.428 C147.784,92.532 145.628,91.468 145.628,88.528 C145.628,85.476 148.26,84.244 151.368,84.244 C152.684,84.244 153.916,84.412 154.84,84.72 L155.204,88.22 Z" id="Leeds-Counts"></path>
        </g>
    </g>
</svg>