<?xml version="1.0" encoding="UTF-8"?>
<svg width="40px" height="55px" viewBox="0 0 40 55" version="1.1" xmlns="http://www.w3.org/2000/svg" xmlns:xlink="http://www.w3.org/1999/xlink">
    <!-- Generator: Sketch 52.2 (67145) - http://www.bohemiancoding.com/sketch -->
    <title>if_poster_1_836131</title>
    <desc>Created with Sketch.</desc>
    <g id="Page-1" stroke="none" stroke-width="1" fill="none" fill-rule="evenodd">
        <g id="step3" transform="translate(-290.000000, -3232.000000)" fill="#FF4100">
            <g id="if_poster_1_836131" transform="translate(290.000000, 3232.000000)">
                <path d="M18.0185268,29.1711133 L15.1428571,24.5713061 L8,36 L13.9535714,36 L22.2857143,36 L33,36 L23.4767857,20 L18.0185268,29.1711133 Z M12.20625,33.7147755 L15.1428571,29.0137148 L16.6635045,31.4462659 L15.3137277,33.7147755 L12.20625,33.7147755 Z M18.0551339,33.7147755 L23.4767857,24.6064502 L28.8967634,33.7147755 L18.0551339,33.7147755 Z" id="Shape" fill-rule="nonzero"></path>
                <path d="M37.645917,9.16609375 L35.2935986,9.16609375 L35.2935986,6.875 L32.9412803,6.875 L32.9412803,0 L30.5871972,0 L30.5871972,6.875 L28.2348789,6.875 L28.2348789,9.16609375 L11.7651211,9.16609375 L11.7651211,6.875 L9.41103807,6.875 L9.41103807,0 L7.05871972,0 L7.05871972,6.875 L4.70640138,6.875 L4.70640138,9.16609375 L2.35231835,9.16609375 L0,9.16609375 L0,11.4580469 L0,52.7071875 L0,55 L2.35231835,55 L37.645917,55 L40,55 L40,52.7071875 L40,11.4580469 L40,9.16609375 L37.645917,9.16609375 Z M30.5871972,9.16609375 L32.9412803,9.16609375 L32.9412803,11.4580469 L30.5871972,11.4580469 L30.5871972,9.16609375 Z M7.05871972,9.16609375 L9.41103807,9.16609375 L9.41103807,11.4580469 L7.05871972,11.4580469 L7.05871972,9.16609375 Z M37.645917,52.7071875 L2.35231835,52.7071875 L2.35231835,11.4580469 L4.70640138,11.4580469 L4.70640138,13.75 L11.7651211,13.75 L11.7651211,11.4580469 L28.2348789,11.4580469 L28.2348789,13.75 L35.2935986,13.75 L35.2935986,11.4580469 L37.645917,11.4580469 L37.645917,52.7071875 Z" id="Shape" fill-rule="nonzero"></path>
                <path d="M24.79946,45 L15.20054,45 C14.5378356,45 14,45.6719921 14,46.5 C14,47.3280079 14.5378356,48 15.20054,48 L24.79946,48 C25.4621644,48 26,47.3280079 26,46.5 C26,45.6719921 25.4621644,45 24.79946,45 Z" id="Path"></path>
                <path d="M29.8345,40 L11.16725,40 C10.5229219,40 10,40.6724962 10,41.4988747 C10,42.3296137 10.5229219,43 11.16725,43 L29.8345,43 C30.4788281,43 31,42.3296137 31,41.4988747 C31,40.6724962 30.4788281,40 29.8345,40 Z" id="Path"></path>
            </g>
        </g>
    </g>
</svg>